<svg width="270" height="270" viewBox="0 0 270 270" fill="none" xmlns="http://www.w3.org/2000/svg">
<g filter="url(#filter0_d_85_53)">
<path d="M185 131C185 158.614 162.614 181 135 181C107.386 181 85 158.614 85 131C85 103.386 107.386 81 135 81C162.614 81 185 103.386 185 131Z" fill="#A4E0DF"/>
<path d="M135 256C101.848 256 70.0537 242.83 46.6117 219.388C23.1696 195.946 10 164.152 10 131C10 97.8479 23.1696 66.0537 46.6116 42.6117C70.0537 19.1696 101.848 6.00001 135 6V43.5C111.794 43.5 89.5376 52.7187 73.1282 69.1282C56.7187 85.5376 47.5 107.794 47.5 131C47.5 154.206 56.7187 176.462 73.1282 192.872C89.5376 209.281 111.794 218.5 135 218.5V256Z" fill="#2B7F7D"/>
<path d="M135 6C151.415 6 167.67 9.23322 182.835 15.5151C198.001 21.7969 211.781 31.0043 223.388 42.6117C234.996 54.219 244.203 67.9989 250.485 83.1646C256.767 98.3303 260 114.585 260 131H222.5C222.5 119.509 220.237 108.131 215.839 97.5152C211.442 86.8992 204.997 77.2533 196.872 69.1282C188.747 61.003 179.101 54.5578 168.485 50.1605C157.869 45.7633 146.491 43.5 135 43.5V6Z" fill="#7ACECD"/>
<path d="M260 131C260 147.415 256.767 163.67 250.485 178.835C244.203 194.001 234.996 207.781 223.388 219.388C211.781 230.996 198.001 240.203 182.835 246.485C167.67 252.767 151.415 256 135 256V218.5C146.491 218.5 157.869 216.237 168.485 211.839C179.101 207.442 188.747 200.997 196.872 192.872C204.997 184.747 211.442 175.101 215.839 164.485C220.237 153.869 222.5 142.491 222.5 131H260Z" fill="black"/>
<path d="M136.575 3.00977C152.848 3.21003 168.939 6.51161 183.983 12.7432C199.513 19.1758 213.624 28.6043 225.51 40.4902C237.396 52.3761 246.824 66.4869 253.257 82.0166C259.689 97.5462 263 114.191 263 131C263 147.809 259.689 164.454 253.257 179.983C246.824 195.513 237.396 209.624 225.51 221.51C213.624 233.396 199.513 242.824 183.983 249.257C168.939 255.488 152.848 258.79 136.575 258.99L135 259C101.052 259 68.4949 245.514 44.4902 221.51C20.4856 197.505 7 164.948 7 131C7 97.0523 20.4856 64.4949 44.4902 40.4902C68.4949 16.4856 101.052 3.00001 135 3L136.575 3.00977ZM133.95 46.5068C111.919 46.7802 90.8482 55.6498 75.249 71.249C59.4022 87.0958 50.5 108.589 50.5 131C50.5 153.411 59.4022 174.904 75.249 190.751C91.0958 206.598 112.589 215.5 135 215.5C146.097 215.5 157.085 213.314 167.337 209.067C177.589 204.821 186.904 198.597 194.751 190.751C202.597 182.905 208.821 173.589 213.067 163.337C217.314 153.085 219.5 142.097 219.5 131C219.5 119.903 217.314 108.915 213.067 98.6631C208.821 88.4112 202.597 79.0955 194.751 71.249C186.905 63.4025 177.589 57.1791 167.337 52.9326C157.085 48.6861 146.097 46.5 135 46.5L133.95 46.5068ZM135 78C164.271 78 188 101.729 188 131C188 160.271 164.271 184 135 184C105.729 184 82 160.271 82 131C82 101.729 105.729 78 135 78Z" stroke="white" stroke-width="6"/>
</g>
<rect width="41" height="6" transform="translate(219 127)" fill="white"/>
<rect width="41" height="6" transform="matrix(0 1 -1 0 139 6)" fill="white"/>
<rect width="41" height="6" transform="matrix(0 1 -1 0 139 215)" fill="white"/>
<defs>
<filter id="filter0_d_85_53" x="0" y="0" width="270" height="270" filterUnits="userSpaceOnUse" color-interpolation-filters="sRGB">
<feFlood flood-opacity="0" result="BackgroundImageFix"/>
<feColorMatrix in="SourceAlpha" type="matrix" values="0 0 0 0 0 0 0 0 0 0 0 0 0 0 0 0 0 0 127 0" result="hardAlpha"/>
<feOffset dy="4"/>
<feGaussianBlur stdDeviation="2"/>
<feComposite in2="hardAlpha" operator="out"/>
<feColorMatrix type="matrix" values="0 0 0 0 0 0 0 0 0 0 0 0 0 0 0 0 0 0 0.25 0"/>
<feBlend mode="normal" in2="BackgroundImageFix" result="effect1_dropShadow_85_53"/>
<feBlend mode="normal" in="SourceGraphic" in2="effect1_dropShadow_85_53" result="shape"/>
</filter>
</defs>
</svg>
